<svg id="Capa_1" data-name="Capa 1" xmlns="http://www.w3.org/2000/svg" viewBox="0 0 35.8 34.5"><defs><style>.cls-1{fill:#2d5d3b;}</style></defs><title>logo-iso-rofex</title><path class="cls-1" d="M395.7,618.7c-9.9,0-17.9,7.7-17.9,17.2s8,17.2,17.9,17.2,17.9-7.7,17.9-17.2-8-17.2-17.9-17.2m0,33c-8.5,0-15.4-7.2-15.4-16s6.9-16,15.4-16,15.4,7.2,15.4,16-6.9,16-15.4,16" transform="translate(-377.8 -618.7)"/><path class="cls-1" d="M385.6,628.9a49.31,49.31,0,0,1,10.1-1,47.67,47.67,0,0,1,10,1v-3.7c-0.5-.1-3.4-0.6-5.1-0.7v1.8a12.14,12.14,0,0,0-1.8-.1v-1.8s-1.6-.1-3.1-0.1-3.2.1-3.2,0.1v1.8s-1.1.1-1.8,0.1v-1.8s-2.9.3-5.1,0.7v3.7" transform="translate(-377.8 -618.7)"/><path class="cls-1" d="M395.5,628.4a52.37,52.37,0,0,0-9.9,1v3.4a0.88,0.88,0,0,0,.5.9,20,20,0,0,1,1.6,1.4,0.6,0.6,0,0,1,.3.6c0,0.2-.2.8-0.2,0.9l-4,14.8s3.4,1.8,11.7,1.8h0.1l-0.1-24.8h0Z" transform="translate(-377.8 -618.7)"/><path class="cls-1" d="M395.7,628.4a52.37,52.37,0,0,1,9.9,1v3.4a0.88,0.88,0,0,1-.5.9,20,20,0,0,0-1.6,1.4,0.6,0.6,0,0,0-.3.6c0,0.2.2,0.8,0.2,0.9l4,14.8s-3.4,1.8-11.7,1.8h-0.1V628.3l0.1,0.1h0Z" transform="translate(-377.8 -618.7)"/></svg>