<svg id="Capa_1" data-name="Capa 1" xmlns="http://www.w3.org/2000/svg" viewBox="0 0 8.9 8.5"><defs><style>.cls-1{fill:#fff;}</style></defs><title>logo-iso-li</title><path id="LinkedIn" class="cls-1" d="M188.8,722.4v3.3h-1.9v-3.1a1.05,1.05,0,0,0-1-1.3,1.26,1.26,0,0,0-1,.7,4.33,4.33,0,0,0-.1.5v3.2H183V720h1.9v0.8h0a1.89,1.89,0,0,1,1.7-.9C187.9,719.9,188.8,720.7,188.8,722.4Zm-7.8-5.2a1,1,0,0,0-1.1,1,1,1,0,0,0,1,1h0a1,1,0,0,0,1.1-1A0.89,0.89,0,0,0,181,717.2Zm-0.9,8.5H182V720h-1.9v5.7Z" transform="translate(-179.9 -717.2)"/></svg>