<svg id="Capa_1" data-name="Capa 1" xmlns="http://www.w3.org/2000/svg" viewBox="0 0 146.39 76.42"><defs><style>.cls-1{fill:#fff;}</style></defs><title>logo-iso-white</title><path class="cls-1" d="M266.6,239.7h-0.8c-5.7,16.2-12.6,36.7-18.4,50.8-1.4,3.4-2.9,4.1-5.6,4.1h-3c-2.7,0-4.1-.7-5.4-4.1-5.8-14-12.8-34.5-18.4-50.8h-0.8c-1.5,20.5-2.1,42-2.8,64.8a1.72,1.72,0,0,1-1.9,2H205c-1.2,0-1.6-.6-1.6-2,0.9-23.1,1.9-46.9,3.9-69.6,0.2-2.5,1.2-3.5,4.1-3.5h4.5c3,0,3.8.2,5.1,3.7,5.8,15.8,13,36.5,19,52h0.6c6-15.5,13.4-36.3,19-52,1.3-3.5,2.1-3.7,5.1-3.7h6s3.1,0.1,3.3,2.3a26,26,0,0,1,.1,3.7" transform="translate(-203.4 -230.08)"/><path class="cls-1" d="M266.6,249.3V236.2a1.37,1.37,0,0,1,1.4-1.4h4.9a1.29,1.29,0,0,1,1.3,1.4v13.1h11.7a1,1,0,0,1,1.2,1.2v4.3a1.06,1.06,0,0,1-1.2,1.2H274.2v31.3c0,4.2.3,7.4,2.1,9.5,1.5,2,4.2,2.9,8.5,2.9H289c0.7,0,1.4,0,1.4,1.3v3.9a1.16,1.16,0,0,1-1.4,1.3h-5.4c-6,0-10.3-1.5-13-4.6-2.5-3-3.8-7.4-3.8-13.3V256" transform="translate(-203.4 -230.08)"/><path class="cls-1" d="M349.4,304.4l-19-31.8c9.3-2.4,14.4-9.5,14.4-19.5v-2.4c0-14.2-9.4-20.5-26.4-20.6h-0.7a50.77,50.77,0,0,0-17.8,2.8c-1.5.5-1.9,1.2-1.6,2.5L299,238c0.3,1.3,1.3,1.6,2.6,1.1a48.45,48.45,0,0,1,9.3-2.2,60.48,60.48,0,0,1,6.5-.3H318c12.9-.1,18.2,3.7,18.2,14.4v1.5c0,10.9-5.2,15.2-16.8,15.2H301.7a1.84,1.84,0,0,0-1.8,2.1v34.5a1.75,1.75,0,0,0,2,2h4.2a1.72,1.72,0,0,0,1.9-2V274c2.9,0.1,6.6.1,10.2,0.1,1.5,0,2.9,0,4.3-.1l18,31.1a2,2,0,0,0,2,1h6C349.9,306.1,350.1,305.5,349.4,304.4Z" transform="translate(-203.4 -230.08)"/></svg>