<svg id="Capa_1" data-name="Capa 1" xmlns="http://www.w3.org/2000/svg" viewBox="0 0 10.4 7.18"><defs><style>.cls-1{fill:#fff;}</style></defs><title>logo-iso-tw</title><path class="cls-1" d="M167.2,721.2a2.36,2.36,0,0,1-1.2-.1,1.16,1.16,0,0,0,1.1-.7,1.63,1.63,0,0,1-1.2.1c0-.1,0-0.2-0.1-0.2a2.23,2.23,0,0,0-2.2-1.7,0.35,0.35,0,0,0,.2-0.1c0.1,0,.7-0.1.6-0.4a1.8,1.8,0,0,0-1,.2,1.27,1.27,0,0,0,.6-0.4,1.23,1.23,0,0,0-.8.4c0.1-.1.1-0.2,0.2-0.3a4.38,4.38,0,0,0-1.6,2.5,3.28,3.28,0,0,0-.8-0.6,18.71,18.71,0,0,0-2.7-1.2,1.41,1.41,0,0,0,.9,1.3,1.49,1.49,0,0,0-.6.1,1.2,1.2,0,0,0,1.2,1,0.78,0.78,0,0,0-.7.3,1.28,1.28,0,0,0,1.3.6c-0.8.3-.3,1,0.3,0.9a2.72,2.72,0,0,1-3.9.1c2.6,3.6,8.4,2.1,9.2-1.3A1.68,1.68,0,0,0,167.2,721.2Z" transform="translate(-156.8 -717.9)"/></svg>