<svg id="Capa_1" data-name="Capa 1" xmlns="http://www.w3.org/2000/svg" viewBox="0 0 9.4 9.4"><defs><style>.cls-1{fill:#fff;}</style></defs><title>logo-iso-in</title><path class="cls-1" d="M206,717.3h-4.2a2.65,2.65,0,0,0-2.6,2.6v4.2a2.65,2.65,0,0,0,2.6,2.6H206a2.65,2.65,0,0,0,2.6-2.6v-4.2A2.52,2.52,0,0,0,206,717.3Zm1.8,6.8a1.79,1.79,0,0,1-1.8,1.8h-4.2a1.79,1.79,0,0,1-1.8-1.8v-4.2a1.79,1.79,0,0,1,1.8-1.8H206a1.79,1.79,0,0,1,1.8,1.8v4.2h0Z" transform="translate(-199.2 -717.3)"/><path class="cls-1" d="M204.5,719.6a2.51,2.51,0,0,0-3,3,2.37,2.37,0,0,0,1.8,1.8,2.51,2.51,0,0,0,3-3A2.37,2.37,0,0,0,204.5,719.6Zm-0.6,4a1.6,1.6,0,1,1,1.6-1.6A1.58,1.58,0,0,1,203.9,723.6Z" transform="translate(-199.2 -717.3)"/><path class="cls-1" d="M206.4,718.8a0.52,0.52,0,0,0-.4.2,0.76,0.76,0,0,0-.2.4,0.52,0.52,0,0,0,.2.4,0.76,0.76,0,0,0,.4.2,0.52,0.52,0,0,0,.4-0.2,0.76,0.76,0,0,0,.2-0.4,0.52,0.52,0,0,0-.2-0.4A0.39,0.39,0,0,0,206.4,718.8Z" transform="translate(-199.2 -717.3)"/></svg>