<svg id="Capa_1" data-name="Capa 1" xmlns="http://www.w3.org/2000/svg" viewBox="0 0 33.9 28.3"><defs><style>.cls-1{fill:#2b3287;}</style></defs><title>logo-iso-matba</title><path class="cls-1" d="M154.5,624.6a2.75,2.75,0,0,1,1.1.8h-1.1v-0.8Z" transform="translate(-148 -621.6)"/><path class="cls-1" d="M158.2,627.1a5.25,5.25,0,0,1,1.1.7h-1.1v-0.7Z" transform="translate(-148 -621.6)"/><path class="cls-1" d="M160.8,629.7a2.55,2.55,0,0,1,1.1.9h-1.1v-0.9Z" transform="translate(-148 -621.6)"/><path class="cls-1" d="M163.7,632.6a4.3,4.3,0,0,1,1,.9h-1v-0.9Z" transform="translate(-148 -621.6)"/><path class="cls-1" d="M181.9,621.6v1.5h-3.2a7.33,7.33,0,0,1,3.2-1.5" transform="translate(-148 -621.6)"/><path class="cls-1" d="M176.1,624.3v1.3h-2a5.69,5.69,0,0,1,2-1.3" transform="translate(-148 -621.6)"/><path class="cls-1" d="M169.2,629.4v1.5h-1.5a7,7,0,0,1,1.5-1.5" transform="translate(-148 -621.6)"/><path class="cls-1" d="M166.6,632.2v1.5h-1.2a7.89,7.89,0,0,1,1.2-1.5" transform="translate(-148 -621.6)"/><path class="cls-1" d="M170.6,640.4v1.4h-1.1a17.08,17.08,0,0,1,1.1-1.4" transform="translate(-148 -621.6)"/><path class="cls-1" d="M169.1,643.1v1.2h-0.6a4.45,4.45,0,0,1,.6-1.2" transform="translate(-148 -621.6)"/><path class="cls-1" d="M167.9,645.7v1.4h-0.7a4.59,4.59,0,0,1,.7-1.4" transform="translate(-148 -621.6)"/><rect class="cls-1" x="28.1" y="2.7" width="5.8" height="1.3"/><rect class="cls-1" x="24.3" y="5.2" width="9.6" height="1.3"/><rect class="cls-1" x="21.2" y="7.8" width="12.7" height="1.5"/><rect class="cls-1" x="18.6" y="10.6" width="15.3" height="1.5"/><rect class="cls-1" x="26.1" y="13.4" width="7.8" height="1.5"/><rect class="cls-1" x="26" y="16.1" width="7.9" height="1.4"/><rect class="cls-1" x="26" y="26.9" width="7.9" height="1.4"/><path class="cls-1" d="M157.9,648.5v1.4h-0.5a7.84,7.84,0,0,1,.5-1.4" transform="translate(-148 -621.6)"/><path class="cls-1" d="M164.8,649.9v-1.4h0.5a3.94,3.94,0,0,1-.5,1.4" transform="translate(-148 -621.6)"/><rect class="cls-1" x="9.9" y="26.9" width="6.9" height="1.4"/><path class="cls-1" d="M158.8,645.7v1.4h-0.5a12.12,12.12,0,0,1,.5-1.4" transform="translate(-148 -621.6)"/><path class="cls-1" d="M165.7,647.2v-1.4h0.6a9.75,9.75,0,0,0-.6,1.4" transform="translate(-148 -621.6)"/><rect class="cls-1" x="10.8" y="24.1" width="6.9" height="1.4"/><path class="cls-1" d="M159.8,643.1v1.2h-0.5a10.41,10.41,0,0,1,.5-1.2" transform="translate(-148 -621.6)"/><path class="cls-1" d="M167,644.3v-1.2h0.6c-0.2.3-.4,0.9-0.6,1.2" transform="translate(-148 -621.6)"/><rect class="cls-1" x="11.8" y="21.5" width="7.2" height="1.2"/><path class="cls-1" d="M161,640.3v1.4h-0.5a3.39,3.39,0,0,1,.5-1.4" transform="translate(-148 -621.6)"/><path class="cls-1" d="M168.2,641.8v-1.4h1a8.47,8.47,0,0,0-1,1.4" transform="translate(-148 -621.6)"/><rect class="cls-1" x="13" y="18.7" width="7.2" height="1.4"/><path class="cls-1" d="M162.6,637.7l-0.5,1.4h-0.6a11,11,0,0,1,1.1-1.4" transform="translate(-148 -621.6)"/><path class="cls-1" d="M170,639.1l0.5-1.4h0.6a6.73,6.73,0,0,1-1.1,1.4" transform="translate(-148 -621.6)"/><polygon class="cls-1" points="14.6 16.1 14.1 17.5 22 17.5 22.5 16.1 14.6 16.1"/><path class="cls-1" d="M164.6,634.9l-0.9,1.6h-0.6a20.59,20.59,0,0,1,1.5-1.6" transform="translate(-148 -621.6)"/><path class="cls-1" d="M172.2,636.5l0.9-1.6h0.6a7.12,7.12,0,0,1-1.5,1.6" transform="translate(-148 -621.6)"/><polygon class="cls-1" points="16.6 13.3 15.7 14.9 24.3 14.9 25.2 13.3 16.6 13.3"/><rect class="cls-1" x="22.6" y="18.8" width="11.3" height="1.4"/><rect class="cls-1" x="21.1" y="21.5" width="12.8" height="1.2"/><rect class="cls-1" x="19.8" y="24.1" width="14" height="1.4"/><polygon class="cls-1" points="22.6 6.5 24.3 6.5 24.3 5.2 22.6 6.5"/><rect class="cls-1" y="27.2" width="7.2" height="0.9"/><rect class="cls-1" y="24.4" width="7.2" height="0.9"/><rect class="cls-1" y="21.7" width="7.2" height="0.9"/><rect class="cls-1" y="19" width="7.2" height="0.9"/><rect class="cls-1" y="16.3" width="7.2" height="0.9"/><rect class="cls-1" y="13.6" width="7.2" height="0.9"/><rect class="cls-1" y="8.1" width="12.8" height="0.9"/><rect class="cls-1" y="5.5" width="10.2" height="0.7"/><rect class="cls-1" y="3" width="6.5" height="0.8"/><rect class="cls-1" y="0.1" width="1.3" height="0.7"/><rect class="cls-1" y="11" width="15.7" height="0.9"/><path class="cls-1" d="M149.3,621.7a3.12,3.12,0,0,1,1.2.7h-1.2v-0.7Z" transform="translate(-148 -621.6)"/><rect class="cls-1" x="10.1" y="13.7" width="7.2" height="0.8"/><rect class="cls-1" x="12.3" y="16.3" width="7.2" height="0.8"/><polygon class="cls-1" points="9.4 13.7 10.1 14.5 10.1 13.7 9.4 13.7"/><polygon class="cls-1" points="11.6 16.4 12.3 17.2 12.3 16.4 11.6 16.4"/></svg>